<?xml version="1.0" encoding="UTF-8" standalone="no"?>
<!-- Created with Inkscape (http://www.inkscape.org/) -->

<svg
   xmlns:dc="http://purl.org/dc/elements/1.1/"
   xmlns:cc="http://creativecommons.org/ns#"
   xmlns:rdf="http://www.w3.org/1999/02/22-rdf-syntax-ns#"
   xmlns:svg="http://www.w3.org/2000/svg"
   xmlns="http://www.w3.org/2000/svg"
   xmlns:sodipodi="http://sodipodi.sourceforge.net/DTD/sodipodi-0.dtd"
   xmlns:inkscape="http://www.inkscape.org/namespaces/inkscape"
   version="1.1"
   id="svg2"
   xml:space="preserve"
   width="2957.2534"
   height="2951.7334"
   viewBox="0 0 2957.2534 2951.7334"
   sodipodi:docname="guide_logo.ai"
   inkscape:version="0.92.5 (2060ec1f9f, 2020-04-08)"><metadata
     id="metadata8"><rdf:RDF><cc:Work
         rdf:about=""><dc:format>image/svg+xml</dc:format><dc:type
           rdf:resource="http://purl.org/dc/dcmitype/StillImage" /><dc:title></dc:title></cc:Work></rdf:RDF></metadata><defs
     id="defs6"><clipPath
       clipPathUnits="userSpaceOnUse"
       id="clipPath18"><path
         d="M 0,2213.796 H 2217.937 V 0 H 0 Z"
         id="path16"
         inkscape:connector-curvature="0" /></clipPath></defs><sodipodi:namedview
     pagecolor="#ffffff"
     bordercolor="#666666"
     borderopacity="1"
     objecttolerance="10"
     gridtolerance="10"
     guidetolerance="10"
     inkscape:pageopacity="0"
     inkscape:pageshadow="2"
     inkscape:window-width="774"
     inkscape:window-height="556"
     id="namedview4"
     showgrid="false"
     inkscape:zoom="0.07995302"
     inkscape:cx="1478.6267"
     inkscape:cy="1475.8667"
     inkscape:window-x="60"
     inkscape:window-y="27"
     inkscape:window-maximized="0"
     inkscape:current-layer="g10" /><g
     id="g10"
     inkscape:groupmode="layer"
     inkscape:label="guide_logo"
     transform="matrix(1.3333333,0,0,-1.3333333,0,2951.7333)"><g
       id="g12"><g
         id="g14"
         clip-path="url(#clipPath18)"><g
           id="g20"
           transform="translate(1108.9688,2137.333)"><path
             d="m 0,0 c -540.027,0 -977.806,-461.341 -977.806,-1030.435 0,-569.093 437.779,-1030.435 977.806,-1030.435 540.027,0 977.806,461.342 977.806,1030.435 C 977.806,-461.341 540.027,0 0,0 m 0,-136.185 c 112.775,0 222.176,-23.275 325.163,-69.179 49.682,-22.145 97.644,-49.586 142.553,-81.558 44.655,-31.792 86.68,-68.339 124.91,-108.626 38.349,-40.413 73.184,-84.911 103.538,-132.26 30.707,-47.899 57.09,-99.127 78.416,-152.261 21.754,-54.2 38.466,-110.945 49.673,-168.657 11.524,-59.352 17.368,-120.488 17.368,-181.709 0,-61.221 -5.844,-122.357 -17.368,-181.71 -11.207,-57.711 -27.919,-114.456 -49.673,-168.656 -21.326,-53.134 -47.709,-104.362 -78.416,-152.261 -30.354,-47.348 -65.189,-91.846 -103.538,-132.259 -38.23,-40.287 -80.255,-76.834 -124.91,-108.626 -44.909,-31.973 -92.871,-59.413 -142.553,-81.558 -102.987,-45.905 -212.388,-69.18 -325.163,-69.18 -112.775,0 -222.176,23.275 -325.163,69.18 -49.683,22.145 -97.644,49.585 -142.554,81.558 -44.655,31.792 -86.679,68.339 -124.91,108.626 -38.348,40.413 -73.183,84.911 -103.538,132.259 -30.707,47.899 -57.089,99.127 -78.415,152.261 -21.754,54.2 -38.467,110.945 -49.673,168.656 -11.525,59.353 -17.369,120.489 -17.369,181.71 0,61.221 5.844,122.357 17.369,181.709 11.206,57.712 27.919,114.457 49.673,168.657 21.326,53.134 47.708,104.362 78.415,152.261 30.355,47.349 65.19,91.847 103.538,132.26 38.231,40.287 80.255,76.834 124.91,108.626 44.91,31.972 92.871,59.413 142.554,81.558 102.987,45.904 212.388,69.179 325.163,69.179"
             style="fill:#4fb24b;fill-opacity:1;fill-rule:nonzero;stroke:none"
             id="path22"
             inkscape:connector-curvature="0" /></g><g
           id="g24"
           transform="translate(1873.1118,1094.0684)"><path
             d="m 0,0 c 0,149.781 -340.901,271.202 -761.424,271.202 -420.523,0 -761.425,-121.421 -761.425,-271.202 0,-149.781 340.902,-271.202 761.425,-271.202 C -340.901,-271.202 0,-149.781 0,0"
             style="fill:#4fb24b;fill-opacity:1;fill-rule:nonzero;stroke:none"
             id="path26"
             inkscape:connector-curvature="0" /></g></g></g></g></svg>